<?xml version="1.0" standalone="no"?><!DOCTYPE svg PUBLIC "-//W3C//DTD SVG 1.1//EN" "http://www.w3.org/Graphics/SVG/1.1/DTD/svg11.dtd"><svg t="1628329993800" class="icon" viewBox="0 0 1024 1024" version="1.1" xmlns="http://www.w3.org/2000/svg" p-id="2447" xmlns:xlink="http://www.w3.org/1999/xlink" width="200" height="200"><defs><style type="text/css"></style></defs><path d="M568.192 113.152l327.637333 286.72A64 64 0 0 1 853.674667 512h-0.384L853.333333 778.666667a117.333333 117.333333 0 0 1-110.165333 117.12L736 896H661.333333a42.666667 42.666667 0 0 1-42.666666-42.666667v-170.666666a42.666667 42.666667 0 0 0-42.666667-42.666667h-128a42.666667 42.666667 0 0 0-42.666667 42.666667v170.666666a42.666667 42.666667 0 0 1-42.666666 42.666667H288A117.333333 117.333333 0 0 1 170.666667 778.666667V512h-0.341334a64 64 0 0 1-42.154666-112.170667l327.637333-286.677333a85.333333 85.333333 0 0 1 112.384 0z" p-id="2448"></path></svg>