<svg t="1665557062042" class="icon" viewBox="0 0 1024 1024" version="1.1" xmlns="http://www.w3.org/2000/svg" p-id="9751" width="200" height="200"><path d="M739.555556 0a284.444444 284.444444 0 0 1 284.444444 284.444444v455.111112a284.444444 284.444444 0 0 1-284.444444 284.444444H284.444444a284.444444 284.444444 0 0 1-284.444444-284.444444V284.444444a284.444444 284.444444 0 0 1 284.444444-284.444444h455.111112z m109.397333 298.097778a56.888889 56.888889 0 0 0-75.491556 4.437333L532.138667 543.800889 411.420444 423.253333l-4.949333-4.380444a56.888889 56.888889 0 0 0-75.491555 4.380444L170.097778 584.135111l-4.437334 4.949333a56.888889 56.888889 0 0 0 4.437334 75.491556l4.949333 4.437333a56.888889 56.888889 0 0 0 75.491556-4.437333l120.661333-120.775111 120.661333 120.775111 5.006223 4.437333a56.888889 56.888889 0 0 0 75.491555-4.437333l281.6-281.6 4.380445-4.949333a56.888889 56.888889 0 0 0-4.437334-75.491556z" p-id="9752"></path></svg>