<?xml version="1.0" standalone="no"?><!DOCTYPE svg PUBLIC "-//W3C//DTD SVG 1.1//EN" "http://www.w3.org/Graphics/SVG/1.1/DTD/svg11.dtd"><svg t="1628330020396" class="icon" viewBox="0 0 1024 1024" version="1.1" xmlns="http://www.w3.org/2000/svg" p-id="3097" xmlns:xlink="http://www.w3.org/1999/xlink" width="200" height="200"><defs><style type="text/css"></style></defs><path d="M512 85.333333c235.264 0 426.666667 191.402667 426.666667 426.666667s-191.402667 426.666667-426.666667 426.666667S85.333333 747.264 85.333333 512 276.736 85.333333 512 85.333333z m106.666667 469.333334h-213.333334a85.333333 85.333333 0 0 0-85.333333 85.333333v21.333333A64 64 0 0 0 384 725.333333h256a64 64 0 0 0 64-64V640a85.333333 85.333333 0 0 0-85.333333-85.333333zM512 277.333333a106.666667 106.666667 0 1 0 0 213.333334 106.666667 106.666667 0 0 0 0-213.333334z" p-id="3098"></path></svg>